<svg xmlns="http://www.w3.org/2000/svg" xmlns:xlink="http://www.w3.org/1999/xlink" zoomAndPan="magnify" preserveAspectRatio="xMidYMid meet" version="1.0" viewBox="11.7 51.12 341.14 101.58"><defs><g/></defs><g fill="#0a2540" fill-opacity="1"><g transform="translate(7.266387, 130.152915)"><g><path d="M 29.703125 1.296875 C 24.785156 1.296875 20.410156 0.125 16.578125 -2.21875 C 12.753906 -4.570312 9.773438 -7.679688 7.640625 -11.546875 C 5.503906 -15.410156 4.4375 -19.507812 4.4375 -23.84375 C 4.4375 -29.269531 5.703125 -33.988281 8.234375 -38 C 10.765625 -42.007812 13.976562 -45.078125 17.875 -47.203125 C 21.78125 -49.335938 25.722656 -50.40625 29.703125 -50.40625 C 34.617188 -50.40625 38.988281 -49.226562 42.8125 -46.875 C 46.644531 -44.53125 49.628906 -41.425781 51.765625 -37.5625 C 53.898438 -33.695312 54.96875 -29.597656 54.96875 -25.265625 C 54.96875 -19.835938 53.679688 -15.117188 51.109375 -11.109375 C 48.546875 -7.097656 45.3125 -4.023438 41.40625 -1.890625 C 37.507812 0.234375 33.609375 1.296875 29.703125 1.296875 Z M 29.703125 -2.703125 C 34.617188 -2.703125 38.210938 -4.796875 40.484375 -8.984375 C 42.765625 -13.179688 43.90625 -18.609375 43.90625 -25.265625 C 43.90625 -31.472656 42.726562 -36.546875 40.375 -40.484375 C 38.03125 -44.421875 34.472656 -46.390625 29.703125 -46.390625 C 24.710938 -46.390625 21.097656 -44.332031 18.859375 -40.21875 C 16.617188 -36.101562 15.5 -30.71875 15.5 -24.0625 C 15.5 -17.851562 16.65625 -12.738281 18.96875 -8.71875 C 21.28125 -4.707031 24.859375 -2.703125 29.703125 -2.703125 Z M 29.703125 -2.703125 "/></g></g></g><g fill="#0a2540" fill-opacity="1"><g transform="translate(65.586721, 130.152915)"><g><path d="M 4.234375 0.328125 C 3.722656 0.328125 3.304688 0.113281 2.984375 -0.3125 C 2.660156 -0.75 2.5 -1.257812 2.5 -1.84375 C 2.570312 -2.78125 2.769531 -3.335938 3.09375 -3.515625 C 3.414062 -3.703125 4.046875 -3.796875 4.984375 -3.796875 C 6.867188 -3.796875 8.207031 -4.117188 9 -4.765625 C 9.789062 -5.421875 10.257812 -6.179688 10.40625 -7.046875 C 10.550781 -7.910156 10.625 -9.285156 10.625 -11.171875 L 10.625 -64.0625 C 10.625 -65.945312 10.566406 -67.320312 10.453125 -68.1875 C 10.347656 -69.050781 9.894531 -69.804688 9.09375 -70.453125 C 8.300781 -71.109375 6.96875 -71.4375 5.09375 -71.4375 C 4.226562 -71.4375 3.578125 -71.5625 3.140625 -71.8125 C 2.710938 -72.070312 2.5 -72.671875 2.5 -73.609375 C 2.5 -74.046875 2.640625 -74.460938 2.921875 -74.859375 C 3.210938 -75.253906 3.648438 -75.488281 4.234375 -75.5625 C 8.785156 -76.207031 12.6875 -77.144531 15.9375 -78.375 C 16.945312 -78.738281 17.773438 -78.957031 18.421875 -79.03125 L 18.75 -79.03125 C 19.90625 -79.03125 20.484375 -78.34375 20.484375 -76.96875 L 20.484375 -11.171875 C 20.484375 -9.285156 20.554688 -7.910156 20.703125 -7.046875 C 20.847656 -6.179688 21.316406 -5.421875 22.109375 -4.765625 C 22.910156 -4.117188 24.25 -3.796875 26.125 -3.796875 L 26.78125 -3.796875 C 27.351562 -3.796875 27.785156 -3.6875 28.078125 -3.46875 C 28.367188 -3.25 28.550781 -2.707031 28.625 -1.84375 C 28.625 -1.257812 28.476562 -0.75 28.1875 -0.3125 C 27.894531 0.113281 27.460938 0.328125 26.890625 0.328125 C 22.691406 0.109375 18.894531 0 15.5 0 C 12.25 0 8.492188 0.109375 4.234375 0.328125 Z M 4.234375 0.328125 "/></g></g></g><g fill="#0a2540" fill-opacity="1"><g transform="translate(95.50567, 130.152915)"><g><path d="M 29.703125 1.296875 C 24.785156 1.296875 20.410156 0.125 16.578125 -2.21875 C 12.753906 -4.570312 9.773438 -7.679688 7.640625 -11.546875 C 5.503906 -15.410156 4.4375 -19.507812 4.4375 -23.84375 C 4.4375 -29.269531 5.703125 -33.988281 8.234375 -38 C 10.765625 -42.007812 13.976562 -45.078125 17.875 -47.203125 C 21.78125 -49.335938 25.722656 -50.40625 29.703125 -50.40625 C 34.617188 -50.40625 38.988281 -49.226562 42.8125 -46.875 C 46.644531 -44.53125 49.628906 -41.425781 51.765625 -37.5625 C 53.898438 -33.695312 54.96875 -29.597656 54.96875 -25.265625 C 54.96875 -19.835938 53.679688 -15.117188 51.109375 -11.109375 C 48.546875 -7.097656 45.3125 -4.023438 41.40625 -1.890625 C 37.507812 0.234375 33.609375 1.296875 29.703125 1.296875 Z M 29.703125 -2.703125 C 34.617188 -2.703125 38.210938 -4.796875 40.484375 -8.984375 C 42.765625 -13.179688 43.90625 -18.609375 43.90625 -25.265625 C 43.90625 -31.472656 42.726562 -36.546875 40.375 -40.484375 C 38.03125 -44.421875 34.472656 -46.390625 29.703125 -46.390625 C 24.710938 -46.390625 21.097656 -44.332031 18.859375 -40.21875 C 16.617188 -36.101562 15.5 -30.71875 15.5 -24.0625 C 15.5 -17.851562 16.65625 -12.738281 18.96875 -8.71875 C 21.28125 -4.707031 24.859375 -2.703125 29.703125 -2.703125 Z M 29.703125 -2.703125 "/></g></g></g><g fill="#0a2540" fill-opacity="1"><g transform="translate(153.825998, 130.152915)"><g><path d="M 23.625 1.296875 C 17.84375 1.296875 13.144531 0.285156 9.53125 -1.734375 C 5.925781 -3.753906 4.125 -6.609375 4.125 -10.296875 C 4.125 -12.390625 4.753906 -14.085938 6.015625 -15.390625 C 7.273438 -16.691406 8.921875 -17.34375 10.953125 -17.34375 C 12.109375 -17.34375 13.132812 -17.015625 14.03125 -16.359375 C 14.9375 -15.710938 15.390625 -15.210938 15.390625 -14.859375 C 15.390625 -14.785156 14.972656 -14.3125 14.140625 -13.4375 C 13.316406 -12.570312 12.90625 -11.34375 12.90625 -9.75 C 12.90625 -7.582031 13.894531 -5.863281 15.875 -4.59375 C 17.863281 -3.332031 20.738281 -2.703125 24.5 -2.703125 C 27.894531 -2.703125 30.550781 -3.441406 32.46875 -4.921875 C 34.382812 -6.410156 35.34375 -8.492188 35.34375 -11.171875 C 35.34375 -12.972656 34.800781 -14.453125 33.71875 -15.609375 C 32.632812 -16.765625 31.273438 -17.664062 29.640625 -18.3125 C 28.015625 -18.96875 25.757812 -19.726562 22.875 -20.59375 C 19.332031 -21.601562 16.441406 -22.613281 14.203125 -23.625 C 11.960938 -24.644531 10.046875 -26.164062 8.453125 -28.1875 C 6.867188 -30.207031 6.078125 -32.84375 6.078125 -36.09375 C 6.078125 -39.132812 7.015625 -41.738281 8.890625 -43.90625 C 10.765625 -46.070312 13.203125 -47.695312 16.203125 -48.78125 C 19.203125 -49.863281 22.363281 -50.40625 25.6875 -50.40625 C 29.957031 -50.40625 33.660156 -49.5 36.796875 -47.6875 C 39.941406 -45.882812 41.515625 -43.359375 41.515625 -40.109375 C 41.515625 -38.160156 40.914062 -36.5 39.71875 -35.125 C 38.53125 -33.75 36.960938 -33.0625 35.015625 -33.0625 C 33.859375 -33.0625 32.828125 -33.382812 31.921875 -34.03125 C 31.023438 -34.6875 30.578125 -35.195312 30.578125 -35.5625 C 30.578125 -35.632812 30.863281 -35.921875 31.4375 -36.421875 C 32.019531 -36.929688 32.546875 -37.53125 33.015625 -38.21875 C 33.484375 -38.90625 33.71875 -39.71875 33.71875 -40.65625 C 33.570312 -42.601562 32.59375 -44.117188 30.78125 -45.203125 C 28.976562 -46.285156 26.847656 -46.828125 24.390625 -46.828125 C 21.640625 -46.828125 19.234375 -46.191406 17.171875 -44.921875 C 15.117188 -43.660156 14.09375 -41.910156 14.09375 -39.671875 C 14.09375 -37.648438 14.523438 -36.039062 15.390625 -34.84375 C 16.253906 -33.65625 17.550781 -32.695312 19.28125 -31.96875 C 21.019531 -31.25 23.769531 -30.273438 27.53125 -29.046875 C 31.363281 -27.816406 34.363281 -26.675781 36.53125 -25.625 C 38.695312 -24.582031 40.410156 -23.175781 41.671875 -21.40625 C 42.941406 -19.632812 43.578125 -17.304688 43.578125 -14.421875 C 43.578125 -11.453125 42.707031 -8.753906 40.96875 -6.328125 C 39.238281 -3.910156 36.851562 -2.035156 33.8125 -0.703125 C 30.78125 0.628906 27.382812 1.296875 23.625 1.296875 Z M 23.625 1.296875 "/></g></g></g><g fill="#0a2540" fill-opacity="1"><g transform="translate(200.764105, 130.152915)"><g><path d="M 23.421875 1.84375 C 19.878906 1.84375 16.84375 0.539062 14.3125 -2.0625 C 11.78125 -4.664062 10.515625 -8.382812 10.515625 -13.21875 L 10.515625 -45.09375 L 4.234375 -44.875 C 3.796875 -44.875 3.429688 -45.070312 3.140625 -45.46875 C 2.847656 -45.875 2.703125 -46.328125 2.703125 -46.828125 C 2.703125 -47.484375 2.828125 -48.046875 3.078125 -48.515625 C 3.335938 -48.984375 3.722656 -49.253906 4.234375 -49.328125 C 6.753906 -49.828125 8.71875 -50.632812 10.125 -51.75 C 11.539062 -52.875 12.570312 -54.101562 13.21875 -55.4375 C 13.875 -56.78125 14.671875 -58.828125 15.609375 -61.578125 C 15.972656 -62.515625 16.769531 -62.984375 18 -62.984375 C 18.5 -62.984375 19 -62.851562 19.5 -62.59375 C 20.007812 -62.34375 20.265625 -61.96875 20.265625 -61.46875 L 19.515625 -49.109375 L 32.203125 -49.859375 L 32.40625 -49.859375 C 33.351562 -49.859375 33.828125 -49.175781 33.828125 -47.8125 C 33.828125 -47.007812 33.695312 -46.265625 33.4375 -45.578125 C 33.1875 -44.898438 32.878906 -44.5625 32.515625 -44.5625 L 20.375 -44.875 L 20.375 -11.921875 C 20.375 -9.535156 20.863281 -7.546875 21.84375 -5.953125 C 22.820312 -4.367188 24.429688 -3.578125 26.671875 -3.578125 C 28.910156 -3.578125 30.894531 -3.972656 32.625 -4.765625 C 33.570312 -5.128906 34.148438 -5.3125 34.359375 -5.3125 C 34.867188 -5.3125 35.265625 -5.113281 35.546875 -4.71875 C 35.835938 -4.320312 36.128906 -3.796875 36.421875 -3.140625 C 36.492188 -2.992188 36.53125 -2.816406 36.53125 -2.609375 C 36.53125 -2.316406 36.3125 -1.988281 35.875 -1.625 C 33.78125 -0.25 31.8125 0.671875 29.96875 1.140625 C 28.125 1.609375 25.941406 1.84375 23.421875 1.84375 Z M 23.421875 1.84375 "/></g></g></g><g fill="#0a2540" fill-opacity="1"><g transform="translate(240.764468, 130.152915)"><g><path d="M 29.8125 1.296875 C 24.394531 1.296875 19.785156 0.140625 15.984375 -2.171875 C 12.191406 -4.484375 9.316406 -7.625 7.359375 -11.59375 C 5.410156 -15.570312 4.4375 -19.984375 4.4375 -24.828125 C 4.4375 -29.085938 5.429688 -33.1875 7.421875 -37.125 C 9.410156 -41.0625 12.25 -44.257812 15.9375 -46.71875 C 19.625 -49.175781 23.851562 -50.40625 28.625 -50.40625 C 35.050781 -50.40625 40 -48.757812 43.46875 -45.46875 C 46.9375 -42.1875 48.925781 -37.765625 49.4375 -32.203125 C 49.4375 -29.816406 48.785156 -28.1875 47.484375 -27.3125 C 46.179688 -26.445312 44.300781 -26.015625 41.84375 -26.015625 L 15.5 -26.015625 C 15.5 -19.296875 16.890625 -13.96875 19.671875 -10.03125 C 22.453125 -6.09375 26.769531 -4.125 32.625 -4.125 C 35.738281 -4.125 38.378906 -4.789062 40.546875 -6.125 C 42.710938 -7.457031 44.769531 -9.71875 46.71875 -12.90625 C 47.082031 -13.257812 47.445312 -13.4375 47.8125 -13.4375 C 48.3125 -13.4375 48.742188 -13.296875 49.109375 -13.015625 C 49.828125 -12.578125 50.1875 -11.925781 50.1875 -11.0625 C 50.1875 -10.625 50.113281 -10.296875 49.96875 -10.078125 C 47.726562 -6.460938 44.890625 -3.660156 41.453125 -1.671875 C 38.023438 0.304688 34.144531 1.296875 29.8125 1.296875 Z M 33.171875 -30.140625 C 36.859375 -30.140625 38.8125 -31.65625 39.03125 -34.6875 C 39.03125 -38.007812 38.125 -40.828125 36.3125 -43.140625 C 34.507812 -45.453125 31.945312 -46.609375 28.625 -46.609375 C 24.9375 -46.609375 21.898438 -45.144531 19.515625 -42.21875 C 17.128906 -39.289062 15.789062 -35.265625 15.5 -30.140625 Z M 33.171875 -30.140625 "/></g></g></g><g fill="#0a2540" fill-opacity="1"><g transform="translate(294.098307, 130.152915)"><g><path d="M 4.234375 22.546875 C 3.722656 22.546875 3.304688 22.328125 2.984375 21.890625 C 2.660156 21.460938 2.5 20.957031 2.5 20.375 C 2.570312 19.4375 2.769531 18.875 3.09375 18.6875 C 3.414062 18.507812 4.046875 18.421875 4.984375 18.421875 C 6.796875 18.421875 8.097656 18.097656 8.890625 17.453125 C 9.679688 16.804688 10.164062 16.007812 10.34375 15.0625 C 10.53125 14.125 10.625 12.789062 10.625 11.0625 L 10.625 -35.984375 C 10.625 -37.867188 10.566406 -39.242188 10.453125 -40.109375 C 10.347656 -40.972656 9.894531 -41.726562 9.09375 -42.375 C 8.300781 -43.03125 6.96875 -43.359375 5.09375 -43.359375 C 4.226562 -43.359375 3.578125 -43.484375 3.140625 -43.734375 C 2.710938 -43.992188 2.5 -44.59375 2.5 -45.53125 C 2.5 -45.96875 2.640625 -46.382812 2.921875 -46.78125 C 3.210938 -47.175781 3.648438 -47.410156 4.234375 -47.484375 C 8.929688 -48.203125 12.796875 -49.140625 15.828125 -50.296875 C 17.054688 -50.660156 17.890625 -50.878906 18.328125 -50.953125 L 18.640625 -50.953125 C 19.796875 -50.953125 20.375 -50.265625 20.375 -48.890625 L 20.375 -43.6875 L 20.703125 -43.6875 C 22.796875 -45.632812 25.253906 -47.238281 28.078125 -48.5 C 30.898438 -49.769531 33.570312 -50.40625 36.09375 -50.40625 C 40.4375 -50.40625 44.320312 -49.320312 47.75 -47.15625 C 51.1875 -44.988281 53.878906 -41.9375 55.828125 -38 C 57.773438 -34.0625 58.75 -29.597656 58.75 -24.609375 C 58.75 -19.546875 57.59375 -15.046875 55.28125 -11.109375 C 52.96875 -7.171875 49.894531 -4.117188 46.0625 -1.953125 C 42.238281 0.210938 38.195312 1.296875 33.9375 1.296875 C 30.96875 1.296875 28.472656 0.988281 26.453125 0.375 C 24.429688 -0.238281 22.585938 -1.050781 20.921875 -2.0625 L 20.484375 -2.0625 L 20.484375 11.0625 C 20.484375 12.789062 20.570312 14.125 20.75 15.0625 C 20.9375 16.007812 21.425781 16.804688 22.21875 17.453125 C 23.019531 18.097656 24.320312 18.421875 26.125 18.421875 L 26.78125 18.421875 C 27.351562 18.421875 27.785156 18.53125 28.078125 18.75 C 28.367188 18.96875 28.550781 19.507812 28.625 20.375 C 28.625 20.957031 28.476562 21.460938 28.1875 21.890625 C 27.894531 22.328125 27.460938 22.546875 26.890625 22.546875 C 22.691406 22.328125 18.894531 22.21875 15.5 22.21875 C 12.25 22.21875 8.492188 22.328125 4.234375 22.546875 Z M 33.0625 -2.390625 C 38.125 -2.390625 41.828125 -4.628906 44.171875 -9.109375 C 46.523438 -13.585938 47.703125 -18.644531 47.703125 -24.28125 C 47.703125 -29.914062 46.398438 -34.773438 43.796875 -38.859375 C 41.191406 -42.941406 37.328125 -44.984375 32.203125 -44.984375 C 29.671875 -44.984375 27.519531 -44.492188 25.75 -43.515625 C 23.976562 -42.546875 22.222656 -41.15625 20.484375 -39.34375 L 20.484375 -10.296875 C 21.359375 -8.128906 22.894531 -6.269531 25.09375 -4.71875 C 27.300781 -3.164062 29.957031 -2.390625 33.0625 -2.390625 Z M 33.0625 -2.390625 "/></g></g></g></svg>